<?xml version="1.0" encoding="iso-8859-1"?>
<svg xmlns="http://www.w3.org/2000/svg" xml:space="preserve" viewBox="0 0 512 512">
  <path fill="#FF473E" d="M396.327 358.248c-.14-5.506.725-10.801 2.43-15.734 2.443-7.068-.349-14.7-6.732-19.019-16.102-10.895-24.353-30.42-19.183-49.7 4.559-17.001 18.38-29.438 35.044-33.696 7.511-1.92 12.643-8.481 12.811-15.861.35-15.342 8.614-30.275 23.616-38.998 7.562-4.397 15.98-6.61 24.378-6.803 6.849-.158 11.499-6.657 9.451-12.86-21.6-65.423-78.914-85.569-113.756-85.569-39.006 0-64.722 4.737-98.702 17.024-6.438 2.328-13.503 2.328-19.941 0-33.98-12.287-59.696-17.024-98.702-17.024-43.589 0-122.359 31.514-122.359 143.784s76.695 272.795 159.721 272.795c20.531 0 39.554-12.182 53.63-22.022 10.085-7.05 23.468-7.075 33.584-.07 14.231 9.855 34 22.092 55.407 22.092 37.16 0 73.05-32.158 101.364-77.752 2.604-4.193 3.346-9.375 1.649-14.01-.755-2.063-1.958-3.868-3.869-4.639-17.249-6.963-29.358-22.931-29.841-41.938z"/>
  <path fill="#FF8A8A" d="M84.864 221.421c-2.028 0-4.086-.229-6.146-.709-14.523-3.382-23.555-17.896-20.173-32.419 6.221-26.716 21.554-51.603 43.175-70.076 11.338-9.686 28.38-8.349 38.067 2.989s8.348 28.38-2.989 38.067c-12.921 11.04-22.034 25.695-25.66 41.266-2.903 12.463-14.005 20.882-26.274 20.882z"/>
  <path fill="#EAB4A2" d="M435.002 395.999c-3.182-10.937-9.603-18.091-7.613-27.79 2.244-10.944-1.215-22.454-8.688-29.746-13.492-13.165-20.07-34.409-15.403-55.406 3.909-17.586 14.82-31.01 28.454-37.365 10.128-4.721 16.983-15.432 18.612-27.811 2.03-15.432 9.76-29.829 22.439-38.723.338-.237 2.338-2.574 2.573-2.909 1.473-2.099 3.254-3.125-2.006-2.131-17.075 3.227-35.16-5.876-50.921 3.288-14.608 8.494-23.514 22.243-25.853 36.98-1.877 11.822-9.775 22.052-21.444 26.56-15.708 6.069-28.28 18.889-32.783 35.684-5.377 20.052 2.202 40.341 17.747 52.913 8.61 6.964 12.596 17.956 10.01 28.408-2.292 9.263-1.994 19.472 1.673 29.918 5.211 14.844 17.58 26.638 33.219 31.593 12.338 3.909 24.915-.525 26.249-5.351s6.028-10.231 3.735-18.112z"/>
  <path fill="#75432E" d="M277.733 62.91c-.023-.911-.046-1.819-.069-2.723-.026-.904-.14-1.791-.208-2.681-.177-1.771-.28-3.544-.531-5.251-.266-1.707-.527-3.385-.783-5.028-.274-1.64-.664-3.199-.985-4.743-.17-.769-.338-1.528-.503-2.275-.2-.73-.397-1.45-.59-2.157-.393-1.412-.761-2.789-1.146-4.091-.858-2.541-1.573-4.944-2.363-6.948-.78-2.01-1.417-3.815-2.03-5.212-1.205-2.823-1.894-4.436-1.894-4.436-.062-.144-.152-.345-.219-.488-3.522-7.5-12.457-10.724-19.957-7.201-7.5 3.522-10.724 12.457-7.201 19.957l.46.979s.605 1.288 1.663 3.542c.55 1.124 1.073 2.505 1.758 4.077.696 1.571 1.27 3.368 2.023 5.311.309.979.632 1.998.965 3.053.167.527.337 1.063.509 1.608.138.548.278 1.104.42 1.667.269 1.128.618 2.28.853 3.468.227 1.188.459 2.401.695 3.635.232 1.234.325 2.498.506 3.77.07.638.19 1.277.224 1.923.035.646.07 1.296.106 1.948.239 2.605.104 5.26.084 7.913-.253 2.651-.372 5.308-.879 7.911-.315 2.614-1.02 5.158-1.565 7.633-.12.621-.317 1.228-.507 1.829-.186.602-.37 1.199-.552 1.789-.378 1.178-.679 2.343-1.086 3.458-.871 2.206-1.632 4.364-2.421 6.237-.773 1.699-1.483 3.258-2.122 4.66-1.028.03-1.764.412-2.056 1.29-2 6-7.145 7.182-14.145 15.35-3.525 4.113 2.145 12.908 12.145 16.061 10.845 3.42 26.251.818 26.251-5.078 0-3.403-2.226-6.038-1.639-10.562.044-.075.083-.142.129-.219.347-.591.732-1.246 1.151-1.958.422-.741.862-1.399 1.371-2.45.994-1.974 2.115-4.201 3.338-6.631 1.13-2.43 2.181-5.048 3.374-7.842.567-1.406 1.04-2.913 1.579-4.425.262-.76.527-1.529.794-2.305.269-.776.545-1.557.748-2.38.871-3.261 1.874-6.606 2.464-10.157.776-3.5 1.132-7.161 1.561-10.815.199-3.675.456-7.373.28-11.013z"/>
  <path fill="#16992B" d="M244.095 115.74s-.134-.109-.392-.32c-.25-.212-.663-.522-1.124-.936-.456-.414-1.067-.919-1.684-1.524-.159-.151-.323-.307-.493-.469-.173-.152-.367-.238-.557-.36-.363-.216-.748-.445-1.156-.687-.807-.474-1.584-.832-2.552-1.41-.471-.264-.954-.526-1.447-.781-.253-.125-.482-.258-.713-.39-.254-.123-.513-.249-.775-.376-.524-.247-1.054-.488-1.588-.719-.518-.231-1.064-.472-1.642-.691-.538-.217-1.089-.44-1.654-.667-.572-.213-1.158-.43-1.756-.653-1.149-.422-2.345-.862-3.583-1.317-.611-.217-1.287-.463-1.905-.703-.631-.234-1.255-.473-1.94-.748-2.574-1.023-5.503-2.257-8.463-3.776-.766-.387-1.511-.801-2.273-1.202-.803-.419-1.589-.88-2.379-1.334-.768-.447-1.608-.96-2.42-1.472-.817-.519-1.613-1.02-2.465-1.611-3.298-2.214-6.794-4.947-10.192-8.092-3.395-3.123-6.836-6.829-9.856-11.008-3.037-4.135-5.629-8.987-7.517-13.96-.456-1.271-.884-2.534-1.279-3.789-.387-1.261-.675-2.585-.967-3.855-.266-1.289-.536-2.538-.693-3.829-.159-1.285-.275-2.555-.393-3.791-.176-2.494-.059-4.961.055-7.271.275-2.342.627-4.563 1.09-6.649.569-2.086 1.188-4.035 1.872-5.84.36-.9.768-1.756 1.18-2.582.4-.824.811-1.613 1.235-2.366 1.683-3.01 3.671-5.386 5.293-7.269 1.817-1.847 3.356-3.184 4.514-4.063.554-.441 1.031-.766 1.348-.983.316-.216.479-.328.479-.328 1.861-1.275 4.312-1.037 5.895.441l.25.235s.144.134.423.395c.281.259.703.642 1.186 1.123 1.02.966 2.339 2.334 3.907 3.932.78.757 1.643 1.595 2.583 2.507.84.873 1.78 1.792 2.787 2.677 1.006.892 1.952 1.805 2.94 2.696 1.056.867 2.067 1.728 3.044 2.574.51.393 1.031.794 1.562 1.202.484.385.977.777 1.478 1.176.5.36 1.008.727 1.524 1.099.482.365.91.739 1.446 1.071.471.339.948.683 1.431 1.031.407.357.945.68 1.409 1.014.442.338.89.679 1.341 1.024.474.342.922.691 1.349 1.045 1.815 1.427 3.435 2.989 5.295 4.892 1.815 1.902 3.622 4.11 5.767 6.61 2.113 2.507 4.305 5.252 6.66 8.37 2.344 3.113 4.649 6.468 6.921 10.188.555.952 1.106 1.895 1.651 2.83.536.965 1.038 1.902 1.566 2.921.527.991.991 2.014 1.47 2.995.49 1.029.925 2.092 1.356 3.116.214.521.428 1.006.631 1.543.193.542.386 1.08.576 1.613.378 1.073.74 2.078 1.043 3.168.625 2.191 1.155 4.231 1.497 6.391.165 1.066.356 2.06.451 3.09.084 1.052.177 2.054.21 3.04.14 1.919-.044 3.892-.176 5.612-.08 1.705-.515 3.4-.822 4.845-.28 1.392-.781 2.935-1.208 4.145-.801 2.607-1.962 3.805-2.674 4.877-.357.506-.691.901-.887 1.163-.205.264-.311.4-.311.4-1.617 2.081-4.615 2.457-6.696.839-.017-.016-.06-.05-.083-.069z"/>
</svg>